<svg class="icon" viewBox="0 0 1024 1024" xmlns="http://www.w3.org/2000/svg" width="32" height="32"><defs><style/></defs><path d="M512 135.5c-207.9 0-376.5 168.6-376.5 376.5S304.1 888.5 512 888.5 888.5 719.9 888.5 512 719.9 135.5 512 135.5zm229.1 233.7h-.9c-.6 1.9-1.5 3.8-2.5 5.5l-223 356.6H398.6l-37.4-329c-.5-10.3-3.8-20.2-9.6-28.7-5.8-6.7-14-11-22.8-12.1l4.8-13.2h105.7c9.2-.8 18.3 2.1 25.3 8 6.4 7.5 10 16.9 10.3 26.7l20.7 228 116.1-219.5c1.1-1.6 2.1-3.3 3-5 .7-1.8 1.1-3.8 1.1-5.7.1-4.9-2.2-9.5-6.2-12.3-5.2-3.9-11.3-6.3-17.8-7.1l4.1-13.2h120.3c6.5-.4 13 1 18.7 4.1 4.1 2.1 6.8 6.3 6.8 11 .1 1.9-.1 3.9-.6 5.9z" fill="#ffbd4a"/></svg>