<?xml version="1.0" standalone="no"?><!DOCTYPE svg PUBLIC "-//W3C//DTD SVG 1.1//EN" "http://www.w3.org/Graphics/SVG/1.1/DTD/svg11.dtd"><svg t="1593844467914" class="icon" viewBox="0 0 1024 1024" version="1.1" xmlns="http://www.w3.org/2000/svg" p-id="2544" width="32" height="32" xmlns:xlink="http://www.w3.org/1999/xlink"><defs><style type="text/css"></style></defs><path d="M720.159412 48.079018l-0.935302 477.918787 245.488087-245.48911C912.441717 177.824011 825.638745 95.685269 720.159412 48.079018z m0 0" fill="#6467F0" p-id="2545"></path><path d="M511.993349 1020.72542c72.811306 0 141.890614-15.873526 204.426902-42.944068l-343.500355-344.434633v367.775224c44.801369 13.06762 91.479481 19.603477 139.073453 19.603477z m0 0" fill="#65D020" p-id="2546"></path><path d="M751.894184 960.982758c102.675474-55.075363 183.888124-143.748938 229.625817-252.031107l-482.593249-0.935302 252.967432 252.966409z m0 0" fill="#00B1FE" p-id="2547"></path><path d="M998.318596 662.278655c14.938224-47.599088 22.406313-98.011244 22.406313-150.282748 0-68.13582-13.068643-132.540665-37.344537-191.344956L640.816343 662.278655h357.502253z m0 0" fill="#5283F0" p-id="2548"></path><path d="M681.880597 385.990075V32.214702C628.681978 13.538341 571.736011 3.27458 511.993349 3.27458c-63.469544 0-123.21016 11.199063-179.212638 32.670074l349.099886 350.045421z m0 0" fill="#F85452" p-id="2549"></path><path d="M49.945017 300.111149l484.456691 0.934278L288.903388 55.54813C183.434288 106.884332 98.478384 193.69856 49.945017 300.111149z m0 0" fill="#FF7612" p-id="2550"></path><path d="M31.279912 346.783121c-17.74106 52.272527-28.005844 108.275006-28.005844 166.148088 0 67.208704 13.065574 130.679271 36.402072 189.486632L396.249231 347.712283H31.279912v-0.929162z m0 0" fill="#FFC817" p-id="2551"></path><path d="M327.181179 986.184743l0.926092-495.649614L63.949986 754.688321c57.874105 104.546078 150.281725 187.627285 263.231193 231.496422z m0 0" fill="#9AD122" p-id="2552"></path></svg>