<svg id="be3e1a43-0c7b-454d-900a-5620992e061d" data-name="Layer 1" xmlns="http://www.w3.org/2000/svg" width="997.861" height="450.808" viewBox="0 0 997.861 450.808"><path fill="#f2f2f2" d="M871.992 181.558h30.159v104.398h-30.159z"/><path fill="#f2f2f2" d="M922.068 266.317l-73.353-87.265-147.24 1.346-89.319 86.998 1.805 1.16h-.645v180.957h308.555V268.556l.197-2.239z"/><path fill="#e6e6e6" d="M848.792 179.238l-91.638 107.436v162.839h164.717V266.236l-73.079-86.998z"/><path fill="#3f3d56" d="M823.272 359.461h33.639v29.733h-33.639zM823.272 307.996h33.639v29.262h-33.639z"/><path fill="#fff" d="M823.272 359.461h33.639v29.733h-33.639zM823.272 307.996h33.639v29.262h-33.639zM673.777 351.571h33.639v29.733h-33.639zM673.777 300.106h33.639v29.262h-33.639z"/><path fill="#f2f2f2" d="M633.992 181.558h30.159v104.398h-30.159z"/><path fill="#f2f2f2" d="M684.068 266.317l-73.353-87.265-147.24 1.346-89.319 86.998 1.805 1.16h-.645v180.957h308.555V268.556l.197-2.239z"/><path fill="#e6e6e6" d="M610.792 179.238l-91.638 107.436v162.839h164.717V266.236l-73.079-86.998z"/><path fill="#3f3d56" d="M585.272 359.461h33.639v29.733h-33.639zM585.272 307.996h33.639v29.262h-33.639z"/><path fill="#fff" d="M585.272 359.461h33.639v29.733h-33.639zM585.272 307.996h33.639v29.262h-33.639zM435.777 351.571h33.639v29.733h-33.639zM435.777 300.106h33.639v29.262h-33.639z"/><path fill="#f2f2f2" d="M380.154 91.46h40.3v139.501h-40.3z"/><path fill="#f2f2f2" d="M447.068 204.718L349.051 88.112 152.302 89.91 32.951 206.161l2.411 1.55h-.861v241.802h412.303V207.711l.264-2.993z"/><path fill="#e6e6e6" d="M349.153 88.36L226.702 231.921v217.592h220.102V204.611L349.153 88.36z"/><path fill="#3f3d56" d="M315.053 329.181h44.95v39.731h-44.95zM315.053 260.412h44.95v39.101h-44.95z"/><path fill="#fff" d="M315.053 329.181h44.95v39.731h-44.95zM315.053 260.412h44.95v39.101h-44.95zM115.29 318.639h44.95v39.731h-44.95zM115.29 249.869h44.95v39.101h-44.95z"/><path fill="#3f3d56" d="M0 448.62h963.951v2H0z"/><ellipse cx="151.872" cy="352.472" rx="29.099" ry="59.374" fill="#3f3d56"/><path d="M255.629 674.254c-11.655-69.925-.118-139.598 0-140.293l2.267.384c-.117.692-11.588 69.999 0 139.532z" transform="translate(-101.07 -224.596)" fill="#ffbd4a"/><path transform="rotate(-28.142 -232.632 661.676)" fill="#ffbd4a" d="M251.026 571.202h29.841v2.3h-29.841z"/><path transform="rotate(-61.842 .158 551.475)" fill="#ffbd4a" d="M237.023 564.485h2.3v29.842h-2.3z"/><ellipse cx="81.955" cy="260.903" rx="56.915" ry="116.129" fill="#ffbd4a"/><path d="M189.364 675.404c-22.765-136.585-.23-272.673 0-274.032l2.268.384c-.23 1.356-22.699 137.077 0 273.27z" transform="translate(-101.07 -224.596)" fill="#3f3d56"/><path transform="rotate(-28.142 -290.118 565.599)" fill="#3f3d56" d="M179.276 475.125h58.368v2.3h-58.368z"/><path transform="rotate(-61.843 -83.874 462.14)" fill="#3f3d56" d="M152.989 460.889h2.3v58.368h-2.3z"/><ellipse cx="216.754" cy="191.008" rx="77.883" ry="158.914" fill="#ffbd4a"/><path d="M326.916 675.404c-31.14-186.837-.314-372.992 0-374.85l2.268.384c-.315 1.854-31.074 187.643 0 374.089z" transform="translate(-101.07 -224.596)" fill="#3f3d56"/><path transform="rotate(-28.142 -145.948 492.305)" fill="#3f3d56" d="M312.694 401.831h79.871v2.3h-79.871z"/><path transform="rotate(-61.843 40.286 393.929)" fill="#3f3d56" d="M277.146 381.926h2.3v79.871h-2.3z"/><ellipse cx="871.029" cy="352.472" rx="29.099" ry="59.374" fill="#3f3d56"/><path d="M969.412 674.254c11.654-69.925.117-139.598-.001-140.293l-2.267.384c.117.692 11.588 69.999 0 139.532z" transform="translate(-101.07 -224.596)" fill="#ffbd4a"/><path transform="rotate(-61.858 721.14 544.394)" fill="#ffbd4a" d="M957.944 557.431h2.3v29.841h-2.3z"/><path transform="rotate(-28.158 488.56 668.608)" fill="#ffbd4a" d="M971.946 578.256h29.842v2.3h-29.842z"/><ellipse cx="940.946" cy="260.903" rx="56.915" ry="116.129" fill="#ffbd4a"/><path d="M1035.676 675.404c22.765-136.585.23-272.673 0-274.032l-2.267.384c.23 1.356 22.698 137.077 0 273.27z" transform="translate(-101.07 -224.596)" fill="#3f3d56"/><path transform="rotate(-61.858 778.626 448.317)" fill="#3f3d56" d="M1015.43 447.091h2.3v58.368h-2.3z"/><path transform="rotate(-28.157 572.585 579.279)" fill="#3f3d56" d="M1041.717 488.923h58.368v2.3h-58.368z"/><ellipse cx="806.148" cy="191.008" rx="77.883" ry="158.914" fill="#ffbd4a"/><path d="M898.124 675.404c31.14-186.837.315-372.992 0-374.85l-2.267.384c.314 1.854 31.073 187.643 0 374.089z" transform="translate(-101.07 -224.596)" fill="#3f3d56"/><path transform="rotate(-61.858 634.456 375.023)" fill="#3f3d56" d="M871.261 363.045h2.3v79.871h-2.3z"/><path transform="rotate(-28.157 448.417 511.073)" fill="#3f3d56" d="M906.809 420.712h79.871v2.3h-79.871z"/><path d="M690.674 326.062l9.205-7.363c-7.151-.789-10.09 3.111-11.292 6.198-5.587-2.32-11.67.72-11.67.72l18.42 6.688a13.938 13.938 0 0 0-4.663-6.243zM465.674 261.062l9.205-7.363c-7.151-.789-10.09 3.111-11.292 6.198-5.587-2.32-11.67.72-11.67.72l18.42 6.688a13.938 13.938 0 0 0-4.663-6.243zM832.674 232.062l9.205-7.363c-7.151-.789-10.09 3.111-11.292 6.198-5.587-2.32-11.67.72-11.67.72l18.42 6.688a13.938 13.938 0 0 0-4.663-6.243zM851.26 661.648a13.918 13.918 0 0 0-6.97 1.87 14.982 14.982 0 0 0-25.03 11.13h45.95a13.99 13.99 0 0 0-13.95-13zM384.26 661.648a13.918 13.918 0 0 0-6.97 1.87 14.982 14.982 0 0 0-25.03 11.13h45.95a13.99 13.99 0 0 0-13.95-13zM623.26 661.648a13.918 13.918 0 0 0-6.97 1.87 14.982 14.982 0 0 0-25.03 11.13h45.95a13.99 13.99 0 0 0-13.95-13z" transform="translate(-101.07 -224.596)" fill="#3f3d56"/><path fill="#3f3d56" d="M471.759 404.228H339.191v4.276h20.675v40.626h4.276v-40.626h80.527v40.626h4.277v-40.626h22.813v-4.276zM339.452 391.434H472.02v4.276H339.452zM339.452 380.743H472.02v4.276H339.452zM339.452 370.052H472.02v4.276H339.452zM678.759 404.228H546.191v4.276h20.675v40.626h4.276v-40.626h80.527v40.626h4.277v-40.626h22.813v-4.276zM546.452 391.434H679.02v4.276H546.452zM546.452 380.743H679.02v4.276H546.452zM546.452 370.052H679.02v4.276H546.452z"/></svg>