<svg class="icon" viewBox="0 0 1024 1024" xmlns="http://www.w3.org/2000/svg" width="32" height="32"><defs><style/></defs><path d="M505.1 933.755c0 49.77-72.758 90.123-162.514 90.123s-162.392-40.354-162.392-90.123 72.758-90 162.514-90 162.515 40.353 162.515 90.122zm175.477-90c-89.756 0-162.514 40.353-162.514 90.122S590.82 1024 680.577 1024s162.514-40.353 162.514-90.123-72.88-90.123-162.514-90.123z" fill="#FFC716"/><path d="M870.85 501.361s-12.229-12.228-25.435-24.456V333.466a333.466 333.466 0 1 0-666.933 0v143.439c-13.329 12.228-25.557 24.456-25.557 24.456-21.644 33.017-73.37 117.27-73.37 196.876s21.766 93.18 29.96 93.792 35.584-6.97 68.845-58.33c45.122 149.92 177.188 258.507 333.222 258.507S800.17 883.62 845.048 733.7c33.506 51.603 61.753 59.307 69.335 58.573s29.959-14.307 29.959-93.791-51.726-163.86-73.37-196.51z" fill="#37464F"/><path d="M266.648 558.834a429.337 429.337 0 0 0-3.668 58.452c0 182.08 113.479 330.165 253.37 330.165s253.371-147.596 253.371-330.165a429.337 429.337 0 0 0-3.913-58.452zm157.623-405.858c-36.685 0-67.256 40.843-67.256 91.224s30.082 91.223 67.256 91.223 67.256-40.843 67.256-91.223-30.082-91.224-67.256-91.224zM435.4 281.251c-13.573 0-24.457-16.752-24.457-37.418s11.006-37.419 24.457-37.419 24.457 16.753 24.457 37.419-11.006 37.418-24.457 37.418zm166.305-128.275c-36.685 0-67.256 40.843-67.256 91.224s30.082 91.223 67.256 91.223S668.96 294.58 668.96 244.2s-30.082-91.224-67.256-91.224zm11.373 94.648a1.834 1.834 0 0 1-1.835 1.834 1.712 1.712 0 0 1-1.712-1.345 24.457 24.457 0 0 0-20.665-17.854 24.457 24.457 0 0 0-20.177 18.098 1.712 1.712 0 0 1-1.59 1.1 1.834 1.834 0 0 1-1.834-1.833v-3.057c0-20.666 11.005-37.42 24.457-37.42s24.456 16.754 24.456 37.42v3.179z" fill="#FFF"/><path d="M247.939 540.492c-6.114 30.57-19.076 167.895-12.962 198.466s31.793 25.435 68.723 25.801 77.528 10.15 78.139-34.728.734-133.289 10.883-165.938-144.783-23.601-144.783-23.601z" fill="#FF3A2F"/><path d="M239.868 606.036l143.56 46.467a416.864 416.864 0 0 1 9.416-88.166c10.15-32.65-144.783-23.845-144.783-23.845-2.201 11.128-5.38 36.685-8.193 65.544z" fill="#DD2C00"/><path d="M512.56 462.23c111.889 0 202.868-40.72 202.868-65.91 0-19.076-90.734-38.764-202.624-38.764s-202.623 17.731-202.623 38.764c0 23.845 90.734 65.91 202.623 65.91z" fill="#FFC716"/><path d="M514.639 486.81s128.52 1.345 231.115-42.188 101.617-48.913 112.867-48.913 24.457 16.141 30.082 45.244 12.228 52.093-12.228 66.4-180.98 106.509-357.923 106.509h-8.805c-176.944 0-333.955-92.324-357.923-106.509s-17.364-36.685-12.228-66.4 18.831-45.244 30.082-45.244 10.149 4.891 112.867 48.913S513.66 486.81 513.66 486.81z" fill="#FF3A2F"/></svg>