<svg class="icon" viewBox="0 0 1241 1024" xmlns="http://www.w3.org/2000/svg" width="38.781" height="32"><defs><style/></defs><path d="M864.065 308.792c6.231 0 12.462 0 18.001.693C843.986 132.933 662.588 0 444.495 0 199.4 0 0 169.628 0 378.72c0 121.856 67.851 230.557 173.782 299.793l-44.31 130.855 147.472-81.006c51.927 18.002 108.7 28.387 168.243 28.387 11.77 0 22.848-.692 33.926-1.385-12.463-33.233-19.386-67.85-19.386-104.546 0-189.014 180.706-342.026 404.338-342.026zM598.199 186.937c36.002 0 65.774 29.08 65.774 65.774 0 36.003-29.08 65.774-65.774 65.774-36.003 0-65.774-29.079-65.774-65.774 0-36.002 29.771-65.774 65.774-65.774zm-305.33 131.548c-36.004 0-65.775-29.079-65.775-65.774 0-36.002 29.08-65.774 65.774-65.774s65.774 29.08 65.774 65.774c0 36.003-29.771 65.774-65.774 65.774z" fill="#50B674"/><path d="M1239.324 651.51c0-175.859-168.244-318.485-375.26-318.485S488.807 475.651 488.807 651.51s168.243 318.486 375.259 318.486c43.619 0 85.16-6.231 123.932-18.001l128.087 70.62-37.388-110.085c97.623-58.158 160.628-153.704 160.628-261.02zm-492.96-45.695c-29.08 0-52.62-23.54-52.62-52.62s23.54-52.619 52.62-52.619 52.62 23.54 52.62 52.62-23.541 52.619-52.62 52.619zm245.095 0c-29.079 0-52.62-23.54-52.62-52.62s23.541-52.619 52.62-52.619 52.62 23.54 52.62 52.62-23.54 52.619-52.62 52.619z" fill="#50B674"/></svg>