<svg class="icon" viewBox="0 0 1194 1024" xmlns="http://www.w3.org/2000/svg" width="37.313" height="32"><defs><style/></defs><path d="M892.201 469.36c-15.87-7.935-31.742-7.935-23.806-30.718 15.87-47.614 23.892-86.268 0-118.01-38.654-54.61-148.644-54.61-265.63 0 0 0-38.654 15.871-31.742-14.847a125.86 125.86 0 0 0 0-140.793c-62.461-62.461-241.909 0-390.637 155.64A536.294 536.294 0 0 0 0 656.658c0 198.305 249.844 321.264 500.626 321.264 328.176 0 538.342-188.406 538.342-336.111A176.46 176.46 0 0 0 892.2 469.36zM500.626 899.59c-196.257 22.783-367.769-70.396-383.64-205.216-15.871-134.82 132.858-248.82 336.026-263.667 203.254-14.933 367.769 70.31 382.702 203.168C850.56 766.733 693.982 875.783 500.626 899.59z" fill="#D52B2A"/><path d="M1109.279 99.544A320.24 320.24 0 0 0 805.08 8.327a57.512 57.512 0 0 0-38.654 54.61 56.488 56.488 0 0 0 62.461 36.607 219.125 219.125 0 0 1 211.105 70.397c52.306 58.023 71.335 138.83 50.6 214.176-5.632 23.21 8.533 46.675 31.742 52.477a44.627 44.627 0 0 0 54.525-29.694 297.372 297.372 0 0 0-67.58-307.356" fill="#E89214"/><path d="M991.354 211.581a169.549 169.549 0 0 0-147.705-46.59 39.678 39.678 0 0 0-23.807 65.448 40.617 40.617 0 0 0 38.654 12.8c25.94-8.534 54.44.682 70.397 22.868 15.957 19.625 21.844 45.736 15.871 70.396a37.118 37.118 0 1 0 70.397 23.807 132.857 132.857 0 0 0-23.807-148.729" fill="#E89214"/><path d="M515.473 523.886A219.125 219.125 0 0 0 273.651 633.96a145.742 145.742 0 0 0 0 126.799c18.516 41.64 55.037 72.615 99.067 84.305A213.152 213.152 0 0 0 630.497 734.99a151.715 151.715 0 0 0-115.024-211.019zm-70.31 219.04a75.346 75.346 0 0 1-93.266 31.742 55.464 55.464 0 0 1-23.721-80.294 75.346 75.346 0 0 1 86.182-31.743c15.957 4.523 28.842 16.213 34.73 31.743a48.638 48.638 0 0 1 0 46.59l-3.926 1.962zm63.399-78.332a31.742 31.742 0 0 1-31.743 15.87c-15.871-7.935-15.871-15.87-7.935-30.718a57.512 57.512 0 0 1 31.742-15.87c6.912 7.935 14.847 15.87 6.912 30.718h1.024z" fill="#040000"/></svg>